<svg xmlns="http://www.w3.org/2000/svg" width="35.306" height="35.306" viewBox="0 0 35.306 35.306"><g transform="translate(3952 -7429.908)"><path d="M22.653,5A17.653,17.653,0,1,0,40.306,22.653,17.674,17.674,0,0,0,22.653,5Zm0,33.345A15.692,15.692,0,1,1,38.345,22.653,15.71,15.71,0,0,1,22.653,38.345Z" transform="translate(-3957 7424.908)" fill="#003d5c"/><path d="M45.249,38.384h-4.9v-4.9a.981.981,0,1,0-1.961,0v4.9h-4.9a.981.981,0,1,0,0,1.961h4.9v4.9a.981.981,0,1,0,1.961,0v-4.9h4.9a.981.981,0,1,0,0-1.961Z" transform="translate(-3973.712 7408.196)" fill="#003d5c"/></g></svg>