<svg xmlns="http://www.w3.org/2000/svg" width="158.122" height="39.325" viewBox="0 0 158.122 39.325">
  <path id="パス_39" data-name="パス 39" d="M13.624-30.275H1.73V0H13.624c10.6,0,15.267-7.742,15.138-15.4C28.632-22.879,24-30.275,13.624-30.275ZM7.4-24.869h6.228c6.574,0,9.342,4.714,9.472,9.429.13,4.93-2.595,9.947-9.472,9.947H7.4Zm34.341,3.46V0H36.46V-21.409Zm-5.752-5.925c0-4.109,6.228-4.109,6.228,0S35.984-23.225,35.984-27.334ZM62.626-4.584a5.912,5.912,0,0,1-6.055-6.055,5.787,5.787,0,0,1,6.055-6.055,5.787,5.787,0,0,1,6.055,6.055A5.912,5.912,0,0,1,62.626-4.584ZM56.1,8.91V-2.508C57.609-.173,60.939.519,63.188.519c6.834,0,10.769-4.93,10.769-11.159,0-6.271-4.368-11.158-10.942-11.158a8.469,8.469,0,0,0-6.92,3.417l-.346-2.941H50.819V8.91ZM93.982-4.584a5.912,5.912,0,0,1-6.055-6.055,5.787,5.787,0,0,1,6.055-6.055,5.787,5.787,0,0,1,6.055,6.055A5.912,5.912,0,0,1,93.982-4.584ZM87.451,8.91V-2.508C88.965-.173,92.3.519,94.545.519c6.833,0,10.769-4.93,10.769-11.159,0-6.271-4.368-11.158-10.942-11.158a8.469,8.469,0,0,0-6.92,3.417l-.346-2.941h-4.93V8.91ZM134.68-8.78c.822-8.78-3.633-13.191-10.769-13.191-6.92,0-11.331,4.671-11.331,11.159C112.58-3.979,116.948.562,124.3.562c3.244,0,6.92-1.125,9.169-3.46L130.1-6.228c-1.211,1.254-3.763,1.989-5.709,1.989-3.719,0-6.012-1.9-6.358-4.541Zm-16.565-4.368c.779-2.768,3.114-4.152,5.968-4.152,3.028,0,5.19,1.384,5.536,4.152Zm24.955-8.174V0h5.277V-11.245c0-3.936,2.552-5.406,5.32-5.406a5.272,5.272,0,0,1,3.806,1.384l2.379-4.585a8.09,8.09,0,0,0-5.493-2.033c-2.163,0-4.368.389-6.012,3.027l-.389-2.465Z" transform="translate(-1.73 30.416)"/>
</svg>
